<?xml version="1.0" encoding="UTF-8"?><svg xmlns="http://www.w3.org/2000/svg" viewBox="0 0 199.89 91.62"><defs><style>.d{font-family:NHaasGroteskDSPro-25Th, Neue Haas Grotesk Display Pro;font-size:20px;}.d,.e{fill:#fffbe9;}.f{letter-spacing:-.03em;}</style></defs><g id="a"/><g id="b"><g id="c"><g><g><path class="e" d="M64.44,35.54v28.53h-4.5v-28.53c0-8.55-4.95-13.14-11.97-13.14-7.56,0-13.5,5.04-13.5,16.56v25.11h-4.5v-28.53c0-8.55-4.59-13.14-11.52-13.14-7.38,0-13.95,5.04-13.95,16.56v25.11H0V21.32c0-1.24,1.01-2.25,2.25-2.25h0c1.24,0,2.25,1.01,2.25,2.25v5.49c3.33-6.21,8.73-8.73,14.49-8.73,6.57,0,11.7,3.24,14.04,9.18,3.24-6.3,9-9.18,15.03-9.18,9.54,0,16.38,6.21,16.38,17.46Z"/><path class="e" d="M74.07,41.57c0-13.32,10.53-23.49,23.67-23.49s23.58,10.17,23.58,23.49-10.53,23.49-23.58,23.49-23.67-10.17-23.67-23.49Zm42.66,0c0-10.71-14.11-10.17-24.82-10.17s-13.25-.54-13.25,10.17,8.37,19.17,19.08,19.17,18.99-8.46,18.99-19.17Z"/><path class="e" d="M138.24,16.64v2.43h13.41v4.41h-13.41v40.59h-4.59V23.48h-7.74v-4.41h7.74v-2.43c0-11.07,6.21-17.46,18-16.56V4.4c-16.8,0-13.41,3.51-13.41,12.24Z"/><path class="e" d="M199.89,21.37v42.7h-4.59v-10.17c-3.78,6.75-10.71,11.16-19.35,11.16-12.78,0-23.31-10.17-23.31-23.49s10.53-23.49,23.31-23.49c8.64,0,15.57,4.41,19.35,11.16v-7.88c0-1.27,1.03-2.29,2.29-2.29h0c1.27,0,2.29,1.03,2.29,2.29Zm-4.59,20.2c0-10.71-8.28-19.17-18.99-19.17s-19.08,8.46-19.08,19.17,8.37,19.17,19.08,19.17,18.99-8.46,18.99-19.17Z"/></g><text class="d" transform="translate(48.84 87.55)"><tspan x="0" y="0">e-comme</tspan><tspan class="f" x="77.12" y="0">r</tspan><tspan x="82.4" y="0">ce</tspan></text></g></g></g></svg>